<mxfile host="Electron" modified="2024-11-10T11:46:45.265Z" agent="Mozilla/5.0 (Windows NT 10.0; Win64; x64) AppleWebKit/537.36 (KHTML, like Gecko) draw.io/24.5.3 Chrome/124.0.6367.207 Electron/30.0.6 Safari/537.36" etag="WTDCMZ6zkW4E1XEFpWMK" version="24.5.3" type="device">
  <diagram name="Page-1" id="BtS5UY8_o1rI_iSevkwz">
    <mxGraphModel dx="3200" dy="1897" grid="1" gridSize="10" guides="1" tooltips="1" connect="1" arrows="1" fold="1" page="0" pageScale="1" pageWidth="850" pageHeight="1100" math="0" shadow="0">
      <root>
        <mxCell id="0" />
        <mxCell id="1" parent="0" />
        <mxCell id="0dvwp6VA4fJ4sUWpHRYH-2" value="" style="rounded=1;whiteSpace=wrap;html=1;" parent="1" vertex="1">
          <mxGeometry x="1172.5" y="-90" width="625" height="1820" as="geometry" />
        </mxCell>
        <mxCell id="0dvwp6VA4fJ4sUWpHRYH-3" value="&lt;font style=&quot;font-size: 45px;&quot;&gt;Log In / Log Out&lt;/font&gt;" style="ellipse;whiteSpace=wrap;html=1;" parent="1" vertex="1">
          <mxGeometry x="1290" y="-30" width="430" height="220" as="geometry" />
        </mxCell>
        <mxCell id="0dvwp6VA4fJ4sUWpHRYH-4" value="&lt;font style=&quot;font-size: 45px;&quot;&gt;CRUD Questions&lt;/font&gt;" style="ellipse;whiteSpace=wrap;html=1;" parent="1" vertex="1">
          <mxGeometry x="1290" y="260" width="430" height="220" as="geometry" />
        </mxCell>
        <mxCell id="0dvwp6VA4fJ4sUWpHRYH-5" value="&lt;font style=&quot;font-size: 45px;&quot;&gt;CRUD Programme&lt;/font&gt;" style="ellipse;whiteSpace=wrap;html=1;" parent="1" vertex="1">
          <mxGeometry x="1270" y="550" width="430" height="220" as="geometry" />
        </mxCell>
        <mxCell id="0dvwp6VA4fJ4sUWpHRYH-6" value="&lt;font style=&quot;font-size: 45px;&quot;&gt;Take Model Test&lt;/font&gt;" style="ellipse;whiteSpace=wrap;html=1;" parent="1" vertex="1">
          <mxGeometry x="1280" y="840" width="430" height="220" as="geometry" />
        </mxCell>
        <mxCell id="0dvwp6VA4fJ4sUWpHRYH-7" value="&lt;font style=&quot;font-size: 45px;&quot;&gt;View Mock Test&lt;/font&gt;" style="ellipse;whiteSpace=wrap;html=1;" parent="1" vertex="1">
          <mxGeometry x="1280" y="1130" width="430" height="220" as="geometry" />
        </mxCell>
        <mxCell id="0dvwp6VA4fJ4sUWpHRYH-8" value="&lt;font style=&quot;font-size: 45px;&quot;&gt;View Test Result&lt;/font&gt;" style="ellipse;whiteSpace=wrap;html=1;" parent="1" vertex="1">
          <mxGeometry x="1260" y="1420" width="430" height="220" as="geometry" />
        </mxCell>
        <mxCell id="0dvwp6VA4fJ4sUWpHRYH-9" value="&lt;font style=&quot;font-size: 45px;&quot;&gt;User&lt;/font&gt;" style="shape=umlActor;verticalLabelPosition=bottom;verticalAlign=top;html=1;outlineConnect=0;" parent="1" vertex="1">
          <mxGeometry x="70" y="360" width="300" height="600" as="geometry" />
        </mxCell>
        <mxCell id="0dvwp6VA4fJ4sUWpHRYH-13" value="&lt;font style=&quot;font-size: 45px;&quot;&gt;Admin&lt;/font&gt;" style="shape=umlActor;verticalLabelPosition=bottom;verticalAlign=top;html=1;outlineConnect=0;" parent="1" vertex="1">
          <mxGeometry x="2500" y="360" width="300" height="600" as="geometry" />
        </mxCell>
        <mxCell id="0dvwp6VA4fJ4sUWpHRYH-17" value="" style="endArrow=classic;html=1;rounded=0;entryX=1;entryY=0.5;entryDx=0;entryDy=0;" parent="1" target="0dvwp6VA4fJ4sUWpHRYH-5" edge="1">
          <mxGeometry width="50" height="50" relative="1" as="geometry">
            <mxPoint x="2500" y="560" as="sourcePoint" />
            <mxPoint x="1730" y="380" as="targetPoint" />
          </mxGeometry>
        </mxCell>
        <mxCell id="fQGuAcjyzs-EonKY_tue-1" value="" style="endArrow=none;html=1;rounded=0;exitX=1;exitY=0.3333333333333333;exitDx=0;exitDy=0;exitPerimeter=0;entryX=0;entryY=0.5;entryDx=0;entryDy=0;" edge="1" parent="1" source="0dvwp6VA4fJ4sUWpHRYH-9" target="0dvwp6VA4fJ4sUWpHRYH-3">
          <mxGeometry width="50" height="50" relative="1" as="geometry">
            <mxPoint x="990" y="400" as="sourcePoint" />
            <mxPoint x="1040" y="350" as="targetPoint" />
          </mxGeometry>
        </mxCell>
        <mxCell id="fQGuAcjyzs-EonKY_tue-2" value="" style="endArrow=none;html=1;rounded=0;exitX=1;exitY=0.3333333333333333;exitDx=0;exitDy=0;exitPerimeter=0;entryX=0;entryY=0.5;entryDx=0;entryDy=0;" edge="1" parent="1" source="0dvwp6VA4fJ4sUWpHRYH-9" target="0dvwp6VA4fJ4sUWpHRYH-6">
          <mxGeometry width="50" height="50" relative="1" as="geometry">
            <mxPoint x="1090" y="950" as="sourcePoint" />
            <mxPoint x="1140" y="900" as="targetPoint" />
          </mxGeometry>
        </mxCell>
        <mxCell id="fQGuAcjyzs-EonKY_tue-3" value="" style="endArrow=none;html=1;rounded=0;exitX=1;exitY=0.3333333333333333;exitDx=0;exitDy=0;exitPerimeter=0;entryX=0;entryY=0.5;entryDx=0;entryDy=0;" edge="1" parent="1" source="0dvwp6VA4fJ4sUWpHRYH-9" target="0dvwp6VA4fJ4sUWpHRYH-7">
          <mxGeometry width="50" height="50" relative="1" as="geometry">
            <mxPoint x="1090" y="950" as="sourcePoint" />
            <mxPoint x="1140" y="900" as="targetPoint" />
          </mxGeometry>
        </mxCell>
        <mxCell id="fQGuAcjyzs-EonKY_tue-4" value="" style="endArrow=none;html=1;rounded=0;exitX=1;exitY=0.3333333333333333;exitDx=0;exitDy=0;exitPerimeter=0;entryX=0;entryY=0.5;entryDx=0;entryDy=0;" edge="1" parent="1" source="0dvwp6VA4fJ4sUWpHRYH-9" target="0dvwp6VA4fJ4sUWpHRYH-8">
          <mxGeometry width="50" height="50" relative="1" as="geometry">
            <mxPoint x="1360" y="960" as="sourcePoint" />
            <mxPoint x="1410" y="910" as="targetPoint" />
          </mxGeometry>
        </mxCell>
        <mxCell id="fQGuAcjyzs-EonKY_tue-5" value="" style="endArrow=none;html=1;rounded=0;exitX=1;exitY=0.5;exitDx=0;exitDy=0;entryX=0;entryY=0.3333333333333333;entryDx=0;entryDy=0;entryPerimeter=0;" edge="1" parent="1" source="0dvwp6VA4fJ4sUWpHRYH-3" target="0dvwp6VA4fJ4sUWpHRYH-13">
          <mxGeometry width="50" height="50" relative="1" as="geometry">
            <mxPoint x="2100" y="600" as="sourcePoint" />
            <mxPoint x="2150" y="550" as="targetPoint" />
          </mxGeometry>
        </mxCell>
        <mxCell id="fQGuAcjyzs-EonKY_tue-6" value="" style="endArrow=none;html=1;rounded=0;exitX=1;exitY=0.5;exitDx=0;exitDy=0;entryX=0;entryY=0.3333333333333333;entryDx=0;entryDy=0;entryPerimeter=0;" edge="1" parent="1" source="0dvwp6VA4fJ4sUWpHRYH-4" target="0dvwp6VA4fJ4sUWpHRYH-13">
          <mxGeometry width="50" height="50" relative="1" as="geometry">
            <mxPoint x="2100" y="600" as="sourcePoint" />
            <mxPoint x="2150" y="550" as="targetPoint" />
          </mxGeometry>
        </mxCell>
        <mxCell id="fQGuAcjyzs-EonKY_tue-7" value="" style="endArrow=none;html=1;rounded=0;exitX=1;exitY=0.5;exitDx=0;exitDy=0;entryX=0;entryY=0.3333333333333333;entryDx=0;entryDy=0;entryPerimeter=0;" edge="1" parent="1" source="0dvwp6VA4fJ4sUWpHRYH-7" target="0dvwp6VA4fJ4sUWpHRYH-13">
          <mxGeometry width="50" height="50" relative="1" as="geometry">
            <mxPoint x="2100" y="890" as="sourcePoint" />
            <mxPoint x="2150" y="840" as="targetPoint" />
          </mxGeometry>
        </mxCell>
        <mxCell id="fQGuAcjyzs-EonKY_tue-8" value="" style="endArrow=none;html=1;rounded=0;exitX=1;exitY=0.5;exitDx=0;exitDy=0;entryX=0;entryY=0.3333333333333333;entryDx=0;entryDy=0;entryPerimeter=0;" edge="1" parent="1" source="0dvwp6VA4fJ4sUWpHRYH-8" target="0dvwp6VA4fJ4sUWpHRYH-13">
          <mxGeometry width="50" height="50" relative="1" as="geometry">
            <mxPoint x="2100" y="890" as="sourcePoint" />
            <mxPoint x="2150" y="840" as="targetPoint" />
          </mxGeometry>
        </mxCell>
      </root>
    </mxGraphModel>
  </diagram>
</mxfile>
